<svg width="600" height="600" viewBox="0 0 600 600" fill="none" xmlns="http://www.w3.org/2000/svg">
<g clip-path="url(#clip0_124_17)">
<rect width="600" height="600" fill="white"/>
<g clip-path="url(#clip1_124_17)">
<mask id="mask0_124_17" style="mask-type:luminance" maskUnits="userSpaceOnUse" x="0" y="0" width="600" height="600">
<path d="M600 0H0V600H600V0Z" fill="white"/>
<path d="M375 150H225C183.579 150 150 183.579 150 225V375C150 416.421 183.579 450 225 450H375C416.421 450 450 416.421 450 375V225C450 183.579 416.421 150 375 150Z" fill="black"/>
</mask>
<g mask="url(#mask0_124_17)">
<path d="M175 325C209.999 325 227.5 325.003 240.869 331.813C252.63 337.803 262.197 347.37 268.187 359.13C274.997 372.5 275 390 275 425V450C275 485 274.997 502.5 268.187 515.87C262.197 527.63 252.63 537.198 240.869 543.188C227.5 549.998 209.999 550 175 550H150C115.001 550 97.4998 549.998 84.1308 543.188C72.3708 537.198 62.8035 527.63 56.8115 515.87C50.0017 502.5 50 485 50 450V425C50 390 50.0017 372.5 56.8115 359.13C62.8035 347.37 72.3708 337.803 84.1308 331.813C97.4998 325.003 115.001 325 150 325H175ZM450 325C485 325 502.5 325.003 515.87 331.813C527.63 337.803 537.198 347.37 543.188 359.13C549.998 372.5 550 390 550 425V450C550 485 549.998 502.5 543.188 515.87C537.198 527.63 527.63 537.198 515.87 543.188C502.5 549.998 485 550 450 550H425C390 550 372.5 549.998 359.13 543.188C347.37 537.198 337.803 527.63 331.813 515.87C325.003 502.5 325 485 325 450V425C325 390 325.003 372.5 331.813 359.13C337.803 347.37 347.37 337.803 359.13 331.813C372.5 325.003 390 325 425 325H450ZM175 50C209.999 50 227.5 50.0017 240.869 56.8115C252.63 62.8035 262.197 72.3708 268.187 84.1308C274.997 97.4998 275 115.001 275 150V175C275 209.999 274.997 227.5 268.187 240.869C262.197 252.63 252.63 262.197 240.869 268.187C227.5 274.997 209.999 275 175 275H150C115.001 275 97.4998 274.997 84.1308 268.187C72.3708 262.197 62.8035 252.63 56.8115 240.869C50.0017 227.5 50 209.999 50 175V150C50 115.001 50.0017 97.4998 56.8115 84.1308C62.8035 72.3708 72.3708 62.8035 84.1308 56.8115C97.4998 50.0017 115.001 50 150 50H175ZM450 50C485 50 502.5 50.0017 515.87 56.8115C527.63 62.8035 537.198 72.3708 543.188 84.1308C549.998 97.4998 550 115.001 550 150V175C550 209.999 549.998 227.5 543.188 240.869C537.198 252.63 527.63 262.197 515.87 268.187C502.5 274.997 485 275 450 275H425C390 275 372.5 274.997 359.13 268.187C347.37 262.197 337.803 252.63 331.813 240.869C325.003 227.5 325 209.999 325 175V150C325 115.001 325.003 97.4998 331.813 84.1308C337.803 72.3708 347.37 62.8035 359.13 56.8115C372.5 50.0017 390 50 425 50H450Z" fill="url(#paint0_linear_124_17)"/>
</g>
<mask id="mask1_124_17" style="mask-type:luminance" maskUnits="userSpaceOnUse" x="150" y="150" width="300" height="300">
<path d="M375 150H225C183.579 150 150 183.579 150 225V375C150 416.421 183.579 450 225 450H375C416.421 450 450 416.421 450 375V225C450 183.579 416.421 150 375 150Z" fill="white"/>
</mask>
<g mask="url(#mask1_124_17)">
<g filter="url(#filter0_f_124_17)">
<path d="M175 325C209.999 325 227.5 325.003 240.869 331.813C252.63 337.803 262.197 347.37 268.187 359.13C274.997 372.5 275 390 275 425V450C275 485 274.997 502.5 268.187 515.87C262.197 527.63 252.63 537.198 240.869 543.188C227.5 549.998 209.999 550 175 550H150C115.001 550 97.4998 549.998 84.1308 543.188C72.3708 537.198 62.8035 527.63 56.8115 515.87C50.0017 502.5 50 485 50 450V425C50 390 50.0017 372.5 56.8115 359.13C62.8035 347.37 72.3708 337.803 84.1308 331.813C97.4998 325.003 115.001 325 150 325H175ZM450 325C485 325 502.5 325.003 515.87 331.813C527.63 337.803 537.198 347.37 543.188 359.13C549.998 372.5 550 390 550 425V450C550 485 549.998 502.5 543.188 515.87C537.198 527.63 527.63 537.198 515.87 543.188C502.5 549.998 485 550 450 550H425C390 550 372.5 549.998 359.13 543.188C347.37 537.198 337.803 527.63 331.813 515.87C325.003 502.5 325 485 325 450V425C325 390 325.003 372.5 331.813 359.13C337.803 347.37 347.37 337.803 359.13 331.813C372.5 325.003 390 325 425 325H450ZM175 50C209.999 50 227.5 50.0017 240.869 56.8115C252.63 62.8035 262.197 72.3708 268.187 84.1308C274.997 97.4998 275 115.001 275 150V175C275 209.999 274.997 227.5 268.187 240.869C262.197 252.63 252.63 262.197 240.869 268.187C227.5 274.997 209.999 275 175 275H150C115.001 275 97.4998 274.997 84.1308 268.187C72.3708 262.197 62.8035 252.63 56.8115 240.869C50.0017 227.5 50 209.999 50 175V150C50 115.001 50.0017 97.4998 56.8115 84.1308C62.8035 72.3708 72.3708 62.8035 84.1308 56.8115C97.4998 50.0017 115.001 50 150 50H175ZM450 50C485 50 502.5 50.0017 515.87 56.8115C527.63 62.8035 537.198 72.3708 543.188 84.1308C549.998 97.4998 550 115.001 550 150V175C550 209.999 549.998 227.5 543.188 240.869C537.198 252.63 527.63 262.197 515.87 268.187C502.5 274.997 485 275 450 275H425C390 275 372.5 274.997 359.13 268.187C347.37 262.197 337.803 252.63 331.813 240.869C325.003 227.5 325 209.999 325 175V150C325 115.001 325.003 97.4998 331.813 84.1308C337.803 72.3708 347.37 62.8035 359.13 56.8115C372.5 50.0017 390 50 425 50H450Z" fill="url(#paint1_linear_124_17)"/>
</g>
</g>
<path d="M375 150H225C183.579 150 150 183.579 150 225V375C150 416.421 183.579 450 225 450H375C416.421 450 450 416.421 450 375V225C450 183.579 416.421 150 375 150Z" fill="url(#paint2_linear_124_17)"/>
<path d="M330.005 431.25V450H269.995V431.25H330.005ZM431.25 330.005V269.995C431.25 248.686 431.243 233.831 430.298 222.266C429.37 210.92 427.637 204.4 425.122 199.463C419.73 188.879 411.12 180.271 400.537 174.878C395.6 172.362 389.08 170.629 377.735 169.702C366.17 168.757 351.313 168.75 330.005 168.75H269.995C248.686 168.75 233.831 168.757 222.266 169.702C210.92 170.629 204.4 172.362 199.463 174.878C188.879 180.271 180.271 188.879 174.878 199.463C172.362 204.4 170.629 210.92 169.702 222.266C168.757 233.831 168.75 248.686 168.75 269.995V330.005C168.75 351.313 168.757 366.17 169.702 377.735C170.629 389.08 172.362 395.6 174.878 400.537C180.271 411.12 188.879 419.73 199.463 425.122C204.4 427.637 210.92 429.37 222.266 430.298C233.831 431.243 248.686 431.25 269.995 431.25V450C227.994 450 206.985 449.995 190.943 441.822C178.595 435.527 168.264 425.957 161.059 414.21L158.179 409.058C152.047 397.025 150.505 382.192 150.122 357.812L150 330.005V269.995C150 230.617 150.002 209.699 156.738 194.018L158.179 190.943C164.472 178.595 174.042 168.264 185.791 161.059L190.943 158.179C206.985 150.004 227.994 150 269.995 150H330.005L357.812 150.122C382.192 150.505 397.025 152.047 409.058 158.179C423.163 165.368 434.632 176.837 441.822 190.943C449.995 206.985 450 227.994 450 269.995V330.005L449.878 357.812C449.495 382.192 447.952 397.025 441.822 409.058L438.94 414.21C431.735 425.957 421.405 435.527 409.058 441.822L405.982 443.262C394.482 448.202 380.165 449.528 357.812 449.878L330.005 450V431.25C351.313 431.25 366.17 431.243 377.735 430.298C389.08 429.37 395.6 427.637 400.537 425.122C411.12 419.73 419.73 411.12 425.122 400.537C427.637 395.6 429.37 389.08 430.298 377.735C431.243 366.17 431.25 351.313 431.25 330.005Z" fill="url(#paint3_linear_124_17)"/>
</g>
</g>
<defs>
<filter id="filter0_f_124_17" x="-18" y="-18" width="636" height="636" filterUnits="userSpaceOnUse" color-interpolation-filters="sRGB">
<feFlood flood-opacity="0" result="BackgroundImageFix"/>
<feBlend mode="normal" in="SourceGraphic" in2="BackgroundImageFix" result="shape"/>
<feGaussianBlur stdDeviation="34" result="effect1_foregroundBlur_124_17"/>
</filter>
<linearGradient id="paint0_linear_124_17" x1="300" y1="50" x2="300" y2="550" gradientUnits="userSpaceOnUse">
<stop stop-color="#575757"/>
<stop offset="1" stop-color="#151515"/>
</linearGradient>
<linearGradient id="paint1_linear_124_17" x1="300" y1="50" x2="300" y2="550" gradientUnits="userSpaceOnUse">
<stop stop-color="#575757"/>
<stop offset="1" stop-color="#151515"/>
</linearGradient>
<linearGradient id="paint2_linear_124_17" x1="300" y1="150" x2="300" y2="450" gradientUnits="userSpaceOnUse">
<stop stop-color="#E3E3E5" stop-opacity="0.6"/>
<stop offset="1" stop-color="#BBBBC0" stop-opacity="0.6"/>
</linearGradient>
<linearGradient id="paint3_linear_124_17" x1="300" y1="150" x2="300" y2="323.725" gradientUnits="userSpaceOnUse">
<stop stop-color="white"/>
<stop offset="1" stop-color="white" stop-opacity="0"/>
</linearGradient>
<clipPath id="clip0_124_17">
<rect width="600" height="600" fill="white"/>
</clipPath>
<clipPath id="clip1_124_17">
<rect width="600" height="600" fill="white"/>
</clipPath>
</defs>
</svg>
